<svg xmlns="http://www.w3.org/2000/svg" width="39.153" height="26" viewBox="0 0 39.153 26">
  <g id="_3247549101579838426" data-name="3247549101579838426" transform="translate(0 -86)">
    <g id="Group_177" data-name="Group 177" transform="translate(9.636 89.059)">
      <g id="Group_176" data-name="Group 176" transform="translate(0 0)">
        <path id="Path_73" data-name="Path 73" d="M135.941,126a9.941,9.941,0,1,0,9.941,9.941A9.952,9.952,0,0,0,135.941,126Zm0,18.353a8.412,8.412,0,1,1,8.412-8.412A8.421,8.421,0,0,1,135.941,144.353Z" transform="translate(-126 -126)" fill="#ff5e14"/>
      </g>
    </g>
    <g id="Group_179" data-name="Group 179" transform="translate(0 86)">
      <g id="Group_178" data-name="Group 178">
        <path id="Path_74" data-name="Path 74" d="M39.012,98.558a41.242,41.242,0,0,0-5.72-6.246C29.481,88.919,24.676,86,19.577,86S9.67,88.92,5.861,92.311a41.241,41.241,0,0,0-5.72,6.246.765.765,0,0,0,0,.885,41.24,41.24,0,0,0,5.72,6.246C9.672,109.081,14.477,112,19.577,112a16.621,16.621,0,0,0,7.564-2,29.867,29.867,0,0,0,6.151-4.315,41.241,41.241,0,0,0,5.72-6.246A.765.765,0,0,0,39.012,98.558ZM19.577,110.471c-4.986,0-9.645-3.21-12.675-5.9A41.639,41.639,0,0,1,1.719,99c1.656-2.158,9.3-11.471,17.857-11.471,4.986,0,9.645,3.21,12.675,5.9A41.642,41.642,0,0,1,37.434,99C35.778,101.158,28.134,110.471,19.577,110.471Z" transform="translate(0 -86)" fill="#ff5e14"/>
      </g>
    </g>
    <g id="Group_181" data-name="Group 181" transform="translate(16.518 92.172)">
      <g id="Group_180" data-name="Group 180" transform="translate(0 0)">
        <path id="Path_75" data-name="Path 75" d="M219.416,172.917c-1.14-.6-1.887-1.041-1.887-1.618a1.529,1.529,0,1,1,3.059,0,.765.765,0,0,0,1.529,0,3.064,3.064,0,0,0-2.294-2.962v-.862a.765.765,0,1,0-1.529,0v.862A3.064,3.064,0,0,0,216,171.3c0,1.543,1.435,2.3,2.7,2.971,1.139.6,1.886,1.04,1.886,1.618a1.529,1.529,0,0,1-3.059,0,.765.765,0,1,0-1.529,0,3.064,3.064,0,0,0,2.294,2.962v.862a.765.765,0,0,0,1.529,0v-.862a3.064,3.064,0,0,0,2.294-2.962C222.118,174.345,220.683,173.586,219.416,172.917Z" transform="translate(-216 -166.71)" fill="#ff5e14"/>
      </g>
    </g>
  </g>
</svg>
