<svg xmlns="http://www.w3.org/2000/svg" width="356" height="470" viewBox="0 0 356 470">
  <g id="Group_110" data-name="Group 110" transform="translate(435 -1151)" opacity="0.3">
    <circle id="Ellipse_3" data-name="Ellipse 3" cx="7" cy="7" r="7" transform="translate(-435 1151)" fill="#d8d8d8"/>
    <circle id="Ellipse_3-2" data-name="Ellipse 3" cx="7" cy="7" r="7" transform="translate(-397 1151)" fill="#d8d8d8"/>
    <circle id="Ellipse_3-3" data-name="Ellipse 3" cx="7" cy="7" r="7" transform="translate(-359 1151)" fill="#d8d8d8"/>
    <circle id="Ellipse_3-4" data-name="Ellipse 3" cx="7" cy="7" r="7" transform="translate(-321 1151)" fill="#d8d8d8"/>
    <circle id="Ellipse_3-5" data-name="Ellipse 3" cx="7" cy="7" r="7" transform="translate(-283 1151)" fill="#d8d8d8"/>
    <circle id="Ellipse_3-6" data-name="Ellipse 3" cx="7" cy="7" r="7" transform="translate(-245 1151)" fill="#d8d8d8"/>
    <circle id="Ellipse_3-7" data-name="Ellipse 3" cx="7" cy="7" r="7" transform="translate(-207 1151)" fill="#d8d8d8"/>
    <circle id="Ellipse_3-8" data-name="Ellipse 3" cx="7" cy="7" r="7" transform="translate(-169 1151)" fill="#d8d8d8"/>
    <circle id="Ellipse_3-9" data-name="Ellipse 3" cx="7" cy="7" r="7" transform="translate(-131 1151)" fill="#d8d8d8"/>
    <circle id="Ellipse_3-10" data-name="Ellipse 3" cx="7" cy="7" r="7" transform="translate(-93 1151)" fill="#d8d8d8"/>
    <circle id="Ellipse_3-11" data-name="Ellipse 3" cx="7" cy="7" r="7" transform="translate(-435 1189)" fill="#d8d8d8"/>
    <circle id="Ellipse_3-12" data-name="Ellipse 3" cx="7" cy="7" r="7" transform="translate(-397 1189)" fill="#d8d8d8"/>
    <circle id="Ellipse_3-13" data-name="Ellipse 3" cx="7" cy="7" r="7" transform="translate(-359 1189)" fill="#d8d8d8"/>
    <circle id="Ellipse_3-14" data-name="Ellipse 3" cx="7" cy="7" r="7" transform="translate(-321 1189)" fill="#d8d8d8"/>
    <circle id="Ellipse_3-15" data-name="Ellipse 3" cx="7" cy="7" r="7" transform="translate(-283 1189)" fill="#d8d8d8"/>
    <circle id="Ellipse_3-16" data-name="Ellipse 3" cx="7" cy="7" r="7" transform="translate(-245 1189)" fill="#d8d8d8"/>
    <circle id="Ellipse_3-17" data-name="Ellipse 3" cx="7" cy="7" r="7" transform="translate(-207 1189)" fill="#d8d8d8"/>
    <circle id="Ellipse_3-18" data-name="Ellipse 3" cx="7" cy="7" r="7" transform="translate(-169 1189)" fill="#d8d8d8"/>
    <circle id="Ellipse_3-19" data-name="Ellipse 3" cx="7" cy="7" r="7" transform="translate(-131 1189)" fill="#d8d8d8"/>
    <circle id="Ellipse_3-20" data-name="Ellipse 3" cx="7" cy="7" r="7" transform="translate(-93 1189)" fill="#d8d8d8"/>
    <circle id="Ellipse_3-21" data-name="Ellipse 3" cx="7" cy="7" r="7" transform="translate(-435 1227)" fill="#d8d8d8"/>
    <circle id="Ellipse_3-22" data-name="Ellipse 3" cx="7" cy="7" r="7" transform="translate(-397 1227)" fill="#d8d8d8"/>
    <circle id="Ellipse_3-23" data-name="Ellipse 3" cx="7" cy="7" r="7" transform="translate(-359 1227)" fill="#d8d8d8"/>
    <circle id="Ellipse_3-24" data-name="Ellipse 3" cx="7" cy="7" r="7" transform="translate(-321 1227)" fill="#d8d8d8"/>
    <circle id="Ellipse_3-25" data-name="Ellipse 3" cx="7" cy="7" r="7" transform="translate(-283 1227)" fill="#d8d8d8"/>
    <circle id="Ellipse_3-26" data-name="Ellipse 3" cx="7" cy="7" r="7" transform="translate(-245 1227)" fill="#d8d8d8"/>
    <circle id="Ellipse_3-27" data-name="Ellipse 3" cx="7" cy="7" r="7" transform="translate(-207 1227)" fill="#d8d8d8"/>
    <circle id="Ellipse_3-28" data-name="Ellipse 3" cx="7" cy="7" r="7" transform="translate(-169 1227)" fill="#d8d8d8"/>
    <circle id="Ellipse_3-29" data-name="Ellipse 3" cx="7" cy="7" r="7" transform="translate(-131 1227)" fill="#d8d8d8"/>
    <circle id="Ellipse_3-30" data-name="Ellipse 3" cx="7" cy="7" r="7" transform="translate(-93 1227)" fill="#d8d8d8"/>
    <circle id="Ellipse_3-31" data-name="Ellipse 3" cx="7" cy="7" r="7" transform="translate(-435 1265)" fill="#d8d8d8"/>
    <circle id="Ellipse_3-32" data-name="Ellipse 3" cx="7" cy="7" r="7" transform="translate(-397 1265)" fill="#d8d8d8"/>
    <circle id="Ellipse_3-33" data-name="Ellipse 3" cx="7" cy="7" r="7" transform="translate(-359 1265)" fill="#d8d8d8"/>
    <circle id="Ellipse_3-34" data-name="Ellipse 3" cx="7" cy="7" r="7" transform="translate(-321 1265)" fill="#d8d8d8"/>
    <circle id="Ellipse_3-35" data-name="Ellipse 3" cx="7" cy="7" r="7" transform="translate(-283 1265)" fill="#d8d8d8"/>
    <circle id="Ellipse_3-36" data-name="Ellipse 3" cx="7" cy="7" r="7" transform="translate(-245 1265)" fill="#d8d8d8"/>
    <circle id="Ellipse_3-37" data-name="Ellipse 3" cx="7" cy="7" r="7" transform="translate(-207 1265)" fill="#d8d8d8"/>
    <circle id="Ellipse_3-38" data-name="Ellipse 3" cx="7" cy="7" r="7" transform="translate(-169 1265)" fill="#d8d8d8"/>
    <circle id="Ellipse_3-39" data-name="Ellipse 3" cx="7" cy="7" r="7" transform="translate(-131 1265)" fill="#d8d8d8"/>
    <circle id="Ellipse_3-40" data-name="Ellipse 3" cx="7" cy="7" r="7" transform="translate(-93 1265)" fill="#d8d8d8"/>
    <circle id="Ellipse_3-41" data-name="Ellipse 3" cx="7" cy="7" r="7" transform="translate(-435 1303)" fill="#d8d8d8"/>
    <circle id="Ellipse_3-42" data-name="Ellipse 3" cx="7" cy="7" r="7" transform="translate(-397 1303)" fill="#d8d8d8"/>
    <circle id="Ellipse_3-43" data-name="Ellipse 3" cx="7" cy="7" r="7" transform="translate(-359 1303)" fill="#d8d8d8"/>
    <circle id="Ellipse_3-44" data-name="Ellipse 3" cx="7" cy="7" r="7" transform="translate(-321 1303)" fill="#d8d8d8"/>
    <circle id="Ellipse_3-45" data-name="Ellipse 3" cx="7" cy="7" r="7" transform="translate(-283 1303)" fill="#d8d8d8"/>
    <circle id="Ellipse_3-46" data-name="Ellipse 3" cx="7" cy="7" r="7" transform="translate(-245 1303)" fill="#d8d8d8"/>
    <circle id="Ellipse_3-47" data-name="Ellipse 3" cx="7" cy="7" r="7" transform="translate(-207 1303)" fill="#d8d8d8"/>
    <circle id="Ellipse_3-48" data-name="Ellipse 3" cx="7" cy="7" r="7" transform="translate(-169 1303)" fill="#d8d8d8"/>
    <circle id="Ellipse_3-49" data-name="Ellipse 3" cx="7" cy="7" r="7" transform="translate(-131 1303)" fill="#d8d8d8"/>
    <circle id="Ellipse_3-50" data-name="Ellipse 3" cx="7" cy="7" r="7" transform="translate(-93 1303)" fill="#d8d8d8"/>
    <circle id="Ellipse_3-51" data-name="Ellipse 3" cx="7" cy="7" r="7" transform="translate(-435 1341)" fill="#d8d8d8"/>
    <circle id="Ellipse_3-52" data-name="Ellipse 3" cx="7" cy="7" r="7" transform="translate(-397 1341)" fill="#d8d8d8"/>
    <circle id="Ellipse_3-53" data-name="Ellipse 3" cx="7" cy="7" r="7" transform="translate(-359 1341)" fill="#d8d8d8"/>
    <circle id="Ellipse_3-54" data-name="Ellipse 3" cx="7" cy="7" r="7" transform="translate(-321 1341)" fill="#d8d8d8"/>
    <circle id="Ellipse_3-55" data-name="Ellipse 3" cx="7" cy="7" r="7" transform="translate(-283 1341)" fill="#d8d8d8"/>
    <circle id="Ellipse_3-56" data-name="Ellipse 3" cx="7" cy="7" r="7" transform="translate(-245 1341)" fill="#d8d8d8"/>
    <circle id="Ellipse_3-57" data-name="Ellipse 3" cx="7" cy="7" r="7" transform="translate(-207 1341)" fill="#d8d8d8"/>
    <circle id="Ellipse_3-58" data-name="Ellipse 3" cx="7" cy="7" r="7" transform="translate(-169 1341)" fill="#d8d8d8"/>
    <circle id="Ellipse_3-59" data-name="Ellipse 3" cx="7" cy="7" r="7" transform="translate(-131 1341)" fill="#d8d8d8"/>
    <circle id="Ellipse_3-60" data-name="Ellipse 3" cx="7" cy="7" r="7" transform="translate(-93 1341)" fill="#d8d8d8"/>
    <circle id="Ellipse_3-61" data-name="Ellipse 3" cx="7" cy="7" r="7" transform="translate(-435 1379)" fill="#d8d8d8"/>
    <circle id="Ellipse_3-62" data-name="Ellipse 3" cx="7" cy="7" r="7" transform="translate(-397 1379)" fill="#d8d8d8"/>
    <circle id="Ellipse_3-63" data-name="Ellipse 3" cx="7" cy="7" r="7" transform="translate(-359 1379)" fill="#d8d8d8"/>
    <circle id="Ellipse_3-64" data-name="Ellipse 3" cx="7" cy="7" r="7" transform="translate(-321 1379)" fill="#d8d8d8"/>
    <circle id="Ellipse_3-65" data-name="Ellipse 3" cx="7" cy="7" r="7" transform="translate(-283 1379)" fill="#d8d8d8"/>
    <circle id="Ellipse_3-66" data-name="Ellipse 3" cx="7" cy="7" r="7" transform="translate(-245 1379)" fill="#d8d8d8"/>
    <circle id="Ellipse_3-67" data-name="Ellipse 3" cx="7" cy="7" r="7" transform="translate(-207 1379)" fill="#d8d8d8"/>
    <circle id="Ellipse_3-68" data-name="Ellipse 3" cx="7" cy="7" r="7" transform="translate(-169 1379)" fill="#d8d8d8"/>
    <circle id="Ellipse_3-69" data-name="Ellipse 3" cx="7" cy="7" r="7" transform="translate(-131 1379)" fill="#d8d8d8"/>
    <circle id="Ellipse_3-70" data-name="Ellipse 3" cx="7" cy="7" r="7" transform="translate(-93 1379)" fill="#d8d8d8"/>
    <circle id="Ellipse_3-71" data-name="Ellipse 3" cx="7" cy="7" r="7" transform="translate(-435 1417)" fill="#d8d8d8"/>
    <circle id="Ellipse_3-72" data-name="Ellipse 3" cx="7" cy="7" r="7" transform="translate(-397 1417)" fill="#d8d8d8"/>
    <circle id="Ellipse_3-73" data-name="Ellipse 3" cx="7" cy="7" r="7" transform="translate(-359 1417)" fill="#d8d8d8"/>
    <circle id="Ellipse_3-74" data-name="Ellipse 3" cx="7" cy="7" r="7" transform="translate(-321 1417)" fill="#d8d8d8"/>
    <circle id="Ellipse_3-75" data-name="Ellipse 3" cx="7" cy="7" r="7" transform="translate(-283 1417)" fill="#d8d8d8"/>
    <circle id="Ellipse_3-76" data-name="Ellipse 3" cx="7" cy="7" r="7" transform="translate(-245 1417)" fill="#d8d8d8"/>
    <circle id="Ellipse_3-77" data-name="Ellipse 3" cx="7" cy="7" r="7" transform="translate(-207 1417)" fill="#d8d8d8"/>
    <circle id="Ellipse_3-78" data-name="Ellipse 3" cx="7" cy="7" r="7" transform="translate(-169 1417)" fill="#d8d8d8"/>
    <circle id="Ellipse_3-79" data-name="Ellipse 3" cx="7" cy="7" r="7" transform="translate(-131 1417)" fill="#d8d8d8"/>
    <circle id="Ellipse_3-80" data-name="Ellipse 3" cx="7" cy="7" r="7" transform="translate(-93 1417)" fill="#d8d8d8"/>
    <circle id="Ellipse_3-81" data-name="Ellipse 3" cx="7" cy="7" r="7" transform="translate(-435 1455)" fill="#d8d8d8"/>
    <circle id="Ellipse_3-82" data-name="Ellipse 3" cx="7" cy="7" r="7" transform="translate(-397 1455)" fill="#d8d8d8"/>
    <circle id="Ellipse_3-83" data-name="Ellipse 3" cx="7" cy="7" r="7" transform="translate(-359 1455)" fill="#d8d8d8"/>
    <circle id="Ellipse_3-84" data-name="Ellipse 3" cx="7" cy="7" r="7" transform="translate(-321 1455)" fill="#d8d8d8"/>
    <circle id="Ellipse_3-85" data-name="Ellipse 3" cx="7" cy="7" r="7" transform="translate(-283 1455)" fill="#d8d8d8"/>
    <circle id="Ellipse_3-86" data-name="Ellipse 3" cx="7" cy="7" r="7" transform="translate(-245 1455)" fill="#d8d8d8"/>
    <circle id="Ellipse_3-87" data-name="Ellipse 3" cx="7" cy="7" r="7" transform="translate(-207 1455)" fill="#d8d8d8"/>
    <circle id="Ellipse_3-88" data-name="Ellipse 3" cx="7" cy="7" r="7" transform="translate(-169 1455)" fill="#d8d8d8"/>
    <circle id="Ellipse_3-89" data-name="Ellipse 3" cx="7" cy="7" r="7" transform="translate(-131 1455)" fill="#d8d8d8"/>
    <circle id="Ellipse_3-90" data-name="Ellipse 3" cx="7" cy="7" r="7" transform="translate(-93 1455)" fill="#d8d8d8"/>
    <circle id="Ellipse_3-91" data-name="Ellipse 3" cx="7" cy="7" r="7" transform="translate(-435 1493)" fill="#d8d8d8"/>
    <circle id="Ellipse_3-92" data-name="Ellipse 3" cx="7" cy="7" r="7" transform="translate(-397 1493)" fill="#d8d8d8"/>
    <circle id="Ellipse_3-93" data-name="Ellipse 3" cx="7" cy="7" r="7" transform="translate(-359 1493)" fill="#d8d8d8"/>
    <circle id="Ellipse_3-94" data-name="Ellipse 3" cx="7" cy="7" r="7" transform="translate(-321 1493)" fill="#d8d8d8"/>
    <circle id="Ellipse_3-95" data-name="Ellipse 3" cx="7" cy="7" r="7" transform="translate(-283 1493)" fill="#d8d8d8"/>
    <circle id="Ellipse_3-96" data-name="Ellipse 3" cx="7" cy="7" r="7" transform="translate(-245 1493)" fill="#d8d8d8"/>
    <circle id="Ellipse_3-97" data-name="Ellipse 3" cx="7" cy="7" r="7" transform="translate(-207 1493)" fill="#d8d8d8"/>
    <circle id="Ellipse_3-98" data-name="Ellipse 3" cx="7" cy="7" r="7" transform="translate(-169 1493)" fill="#d8d8d8"/>
    <circle id="Ellipse_3-99" data-name="Ellipse 3" cx="7" cy="7" r="7" transform="translate(-131 1493)" fill="#d8d8d8"/>
    <circle id="Ellipse_3-100" data-name="Ellipse 3" cx="7" cy="7" r="7" transform="translate(-93 1493)" fill="#d8d8d8"/>
    <circle id="Ellipse_3-101" data-name="Ellipse 3" cx="7" cy="7" r="7" transform="translate(-435 1531)" fill="#d8d8d8"/>
    <circle id="Ellipse_3-102" data-name="Ellipse 3" cx="7" cy="7" r="7" transform="translate(-397 1531)" fill="#d8d8d8"/>
    <circle id="Ellipse_3-103" data-name="Ellipse 3" cx="7" cy="7" r="7" transform="translate(-359 1531)" fill="#d8d8d8"/>
    <circle id="Ellipse_3-104" data-name="Ellipse 3" cx="7" cy="7" r="7" transform="translate(-321 1531)" fill="#d8d8d8"/>
    <circle id="Ellipse_3-105" data-name="Ellipse 3" cx="7" cy="7" r="7" transform="translate(-283 1531)" fill="#d8d8d8"/>
    <circle id="Ellipse_3-106" data-name="Ellipse 3" cx="7" cy="7" r="7" transform="translate(-245 1531)" fill="#d8d8d8"/>
    <circle id="Ellipse_3-107" data-name="Ellipse 3" cx="7" cy="7" r="7" transform="translate(-207 1531)" fill="#d8d8d8"/>
    <circle id="Ellipse_3-108" data-name="Ellipse 3" cx="7" cy="7" r="7" transform="translate(-169 1531)" fill="#d8d8d8"/>
    <circle id="Ellipse_3-109" data-name="Ellipse 3" cx="7" cy="7" r="7" transform="translate(-131 1531)" fill="#d8d8d8"/>
    <circle id="Ellipse_3-110" data-name="Ellipse 3" cx="7" cy="7" r="7" transform="translate(-93 1531)" fill="#d8d8d8"/>
    <circle id="Ellipse_3-111" data-name="Ellipse 3" cx="7" cy="7" r="7" transform="translate(-435 1569)" fill="#d8d8d8"/>
    <circle id="Ellipse_3-112" data-name="Ellipse 3" cx="7" cy="7" r="7" transform="translate(-397 1569)" fill="#d8d8d8"/>
    <circle id="Ellipse_3-113" data-name="Ellipse 3" cx="7" cy="7" r="7" transform="translate(-359 1569)" fill="#d8d8d8"/>
    <circle id="Ellipse_3-114" data-name="Ellipse 3" cx="7" cy="7" r="7" transform="translate(-321 1569)" fill="#d8d8d8"/>
    <circle id="Ellipse_3-115" data-name="Ellipse 3" cx="7" cy="7" r="7" transform="translate(-283 1569)" fill="#d8d8d8"/>
    <circle id="Ellipse_3-116" data-name="Ellipse 3" cx="7" cy="7" r="7" transform="translate(-245 1569)" fill="#d8d8d8"/>
    <circle id="Ellipse_3-117" data-name="Ellipse 3" cx="7" cy="7" r="7" transform="translate(-207 1569)" fill="#d8d8d8"/>
    <circle id="Ellipse_3-118" data-name="Ellipse 3" cx="7" cy="7" r="7" transform="translate(-169 1569)" fill="#d8d8d8"/>
    <circle id="Ellipse_3-119" data-name="Ellipse 3" cx="7" cy="7" r="7" transform="translate(-131 1569)" fill="#d8d8d8"/>
    <circle id="Ellipse_3-120" data-name="Ellipse 3" cx="7" cy="7" r="7" transform="translate(-93 1569)" fill="#d8d8d8"/>
    <circle id="Ellipse_3-121" data-name="Ellipse 3" cx="7" cy="7" r="7" transform="translate(-435 1607)" fill="#d8d8d8"/>
    <circle id="Ellipse_3-122" data-name="Ellipse 3" cx="7" cy="7" r="7" transform="translate(-397 1607)" fill="#d8d8d8"/>
    <circle id="Ellipse_3-123" data-name="Ellipse 3" cx="7" cy="7" r="7" transform="translate(-359 1607)" fill="#d8d8d8"/>
    <circle id="Ellipse_3-124" data-name="Ellipse 3" cx="7" cy="7" r="7" transform="translate(-321 1607)" fill="#d8d8d8"/>
    <circle id="Ellipse_3-125" data-name="Ellipse 3" cx="7" cy="7" r="7" transform="translate(-283 1607)" fill="#d8d8d8"/>
    <circle id="Ellipse_3-126" data-name="Ellipse 3" cx="7" cy="7" r="7" transform="translate(-245 1607)" fill="#d8d8d8"/>
    <circle id="Ellipse_3-127" data-name="Ellipse 3" cx="7" cy="7" r="7" transform="translate(-207 1607)" fill="#d8d8d8"/>
    <circle id="Ellipse_3-128" data-name="Ellipse 3" cx="7" cy="7" r="7" transform="translate(-169 1607)" fill="#d8d8d8"/>
    <circle id="Ellipse_3-129" data-name="Ellipse 3" cx="7" cy="7" r="7" transform="translate(-131 1607)" fill="#d8d8d8"/>
    <circle id="Ellipse_3-130" data-name="Ellipse 3" cx="7" cy="7" r="7" transform="translate(-93 1607)" fill="#d8d8d8"/>
  </g>
</svg>
